<svg xmlns="http://www.w3.org/2000/svg" viewBox="0 0 14.62 13"><title>z-cart</title><g id="Camada_2" data-name="Camada 2"><g id="Camada_1-2" data-name="Camada 1"><path d="M13.41,7.64a.67.67,0,0,1-.22.36.61.61,0,0,1-.37.12H5.38l.16.82h6.83a.53.53,0,0,1,.45.23.61.61,0,0,1,.13.5l-.15.64a1.36,1.36,0,0,1,.59.52,1.34,1.34,0,0,1,.22.75A1.43,1.43,0,0,1,12.19,13a1.38,1.38,0,0,1-1-.42,1.41,1.41,0,0,1-.41-1,1.32,1.32,0,0,1,.43-1H5.87a1.36,1.36,0,0,1,.43,1A1.43,1.43,0,0,1,4.88,13a1.38,1.38,0,0,1-1-.42,1.36,1.36,0,0,1-.42-1,1.45,1.45,0,0,1,.19-.71,1.58,1.58,0,0,1,.52-.54L2.39,1.62H.61a.57.57,0,0,1-.43-.17A.6.6,0,0,1,0,1V.61A.58.58,0,0,1,.18.18.58.58,0,0,1,.61,0H3.22a.57.57,0,0,1,.37.14.69.69,0,0,1,.22.34L4,1.62H14a.59.59,0,0,1,.48.23.56.56,0,0,1,.1.51Z"/></g></g></svg>