<svg xmlns="http://www.w3.org/2000/svg" viewBox="0 0 8.75 7.66"><title>z-menu</title><g id="Camada_2" data-name="Camada 2"><g id="Camada_1-2" data-name="Camada 1"><path d="M.31,1.41a.29.29,0,0,1-.22-.09A.32.32,0,0,1,0,1.09V.31A.29.29,0,0,1,.09.09.29.29,0,0,1,.31,0H8.44a.29.29,0,0,1,.22.09.29.29,0,0,1,.09.22v.78a.32.32,0,0,1-.09.23.29.29,0,0,1-.22.09Zm0,3.12a.29.29,0,0,1-.22-.09A.29.29,0,0,1,0,4.22V3.44a.32.32,0,0,1,.09-.23.29.29,0,0,1,.22-.09H8.44a.29.29,0,0,1,.22.09.32.32,0,0,1,.09.23v.78a.31.31,0,0,1-.31.31Zm0,3.13a.29.29,0,0,1-.22-.09A.32.32,0,0,1,0,7.34V6.56a.29.29,0,0,1,.09-.22.29.29,0,0,1,.22-.09H8.44a.31.31,0,0,1,.31.31v.78a.32.32,0,0,1-.09.23.29.29,0,0,1-.22.09Z"/></g></g></svg>