<svg xmlns="http://www.w3.org/2000/svg" viewBox="0 0 17.44 17.44"><title>z-next</title><g id="Camada_2" data-name="Camada 2"><g id="Camada_1-2" data-name="Camada 1"><path d="M17.44,8.72a8.52,8.52,0,0,1-1.18,4.36,9,9,0,0,1-3.18,3.18,8.64,8.64,0,0,1-8.72,0,8.81,8.81,0,0,1-3.18-3.18A8.42,8.42,0,0,1,0,8.72,8.42,8.42,0,0,1,1.18,4.36,8.66,8.66,0,0,1,4.36,1.18,8.42,8.42,0,0,1,8.72,0a8.42,8.42,0,0,1,4.36,1.18,8.81,8.81,0,0,1,3.18,3.18A8.52,8.52,0,0,1,17.44,8.72Zm-15.75,0a6.73,6.73,0,0,0,1,3.51A7,7,0,0,0,5.2,14.8a7,7,0,0,0,7,0,7,7,0,0,0,2.57-2.57,7,7,0,0,0,0-7,7,7,0,0,0-2.57-2.56,6.73,6.73,0,0,0-3.51-1,6.76,6.76,0,0,0-3.52,1A7,7,0,0,0,2.64,5.2,6.76,6.76,0,0,0,1.69,8.72Zm2.53.7a.41.41,0,0,0,.42.42H8.72V12.2a.39.39,0,0,0,.26.39.42.42,0,0,0,.48-.11L12.94,9a.56.56,0,0,0,0-.64L9.42,4.92A.37.37,0,0,0,9,4.85a.39.39,0,0,0-.26.39V7.59H4.64a.38.38,0,0,0-.3.13.41.41,0,0,0-.12.3Z"/></g></g></svg>