<svg xmlns="http://www.w3.org/2000/svg" viewBox="0 0 13.99 13.99"><title>z-phone</title><g id="Camada_2" data-name="Camada 2"><g id="Camada_1-2" data-name="Camada 1"><path d="M13.47.67a.53.53,0,0,1,.38.22A.66.66,0,0,1,14,1.3a12.46,12.46,0,0,1-1.72,6.4A12.67,12.67,0,0,1,7.7,12.27,12.46,12.46,0,0,1,1.3,14a.66.66,0,0,1-.41-.14.53.53,0,0,1-.22-.38L0,10.63a.62.62,0,0,1,.05-.44.6.6,0,0,1,.33-.3L3.46,8.58a.64.64,0,0,1,.41,0,.51.51,0,0,1,.36.23l1.34,1.64a9.65,9.65,0,0,0,2.86-2,10,10,0,0,0,2-2.84L8.77,4.2a.65.65,0,0,1-.22-.34.61.61,0,0,1,0-.42L9.89.37a.62.62,0,0,1,.3-.3.62.62,0,0,1,.44,0Z"/></g></g></svg>