<svg xmlns="http://www.w3.org/2000/svg" viewBox="0 0 17.44 17.44"><title>z-prev</title><g id="Camada_2" data-name="Camada 2"><g id="Camada_1-2" data-name="Camada 1"><path d="M0,8.72A8.42,8.42,0,0,1,1.18,4.36,8.66,8.66,0,0,1,4.36,1.18,8.42,8.42,0,0,1,8.72,0a8.42,8.42,0,0,1,4.36,1.18,8.81,8.81,0,0,1,3.18,3.18,8.64,8.64,0,0,1,0,8.72,9,9,0,0,1-3.18,3.18,8.64,8.64,0,0,1-8.72,0,8.81,8.81,0,0,1-3.18-3.18A8.42,8.42,0,0,1,0,8.72Zm15.75,0A6.86,6.86,0,0,0,14.8,5.2a7,7,0,0,0-2.57-2.56,6.73,6.73,0,0,0-3.51-1,6.76,6.76,0,0,0-3.52,1A7,7,0,0,0,2.64,5.2a6.76,6.76,0,0,0-1,3.52,6.73,6.73,0,0,0,1,3.51A7,7,0,0,0,5.2,14.8a7,7,0,0,0,7,0,7,7,0,0,0,2.57-2.57A6.82,6.82,0,0,0,15.75,8.72ZM13.22,8a.43.43,0,0,0-.42-.43H8.72V5.24a.39.39,0,0,0-.26-.39A.37.37,0,0,0,8,4.92L4.54,8.4a.44.44,0,0,0-.15.32A.32.32,0,0,0,4.54,9L8,12.48a.35.35,0,0,0,.44.11.39.39,0,0,0,.26-.39V9.84H12.8a.44.44,0,0,0,.3-.12.41.41,0,0,0,.12-.3Z"/></g></g></svg>