<svg xmlns="http://www.w3.org/2000/svg" viewBox="0 0 10 10"><title>z-search</title><g id="Camada_2" data-name="Camada 2"><g id="Camada_1-2" data-name="Camada 1"><path d="M9.86,8.65A.45.45,0,0,1,10,9a.48.48,0,0,1-.14.34l-.54.54A.48.48,0,0,1,9,10a.45.45,0,0,1-.33-.14L6.7,7.91a.45.45,0,0,1-.14-.33V7.27a3.94,3.94,0,0,1-2.5.85,4,4,0,0,1-2-.54A4.09,4.09,0,0,1,.55,6.1a3.9,3.9,0,0,1-.55-2A3.9,3.9,0,0,1,.55,2,4,4,0,0,1,2,.55a3.9,3.9,0,0,1,2-.55,3.88,3.88,0,0,1,2,.55A4.09,4.09,0,0,1,7.58,2a4,4,0,0,1,.54,2,3.94,3.94,0,0,1-.85,2.5h.31a.45.45,0,0,1,.33.14ZM4.06,6.56a2.47,2.47,0,0,0,1.26-.33,2.34,2.34,0,0,0,.91-.91,2.47,2.47,0,0,0,.33-1.26A2.52,2.52,0,0,0,6.23,2.8,2.48,2.48,0,0,0,4.06,1.56a2.52,2.52,0,0,0-1.26.33,2.64,2.64,0,0,0-.91.91,2.52,2.52,0,0,0-.33,1.26A2.48,2.48,0,0,0,2.8,6.23,2.52,2.52,0,0,0,4.06,6.56Z"/></g></g></svg>