<svg xmlns="http://www.w3.org/2000/svg" viewBox="0 0 25 20"><title>z-truck</title><g id="Camada_2" data-name="Camada 2"><g id="Camada_1-2" data-name="Camada 1"><path d="M24.37,13.75a.62.62,0,0,1,.63.63v1.24a.62.62,0,0,1-.63.63H22.5A3.72,3.72,0,0,1,18.75,20,3.72,3.72,0,0,1,15,16.25H10A3.72,3.72,0,0,1,6.25,20,3.72,3.72,0,0,1,2.5,16.25v-5H8.44a.35.35,0,0,0,.31-.31v-.63A.35.35,0,0,0,8.44,10H.31A.26.26,0,0,1,.1,9.9.26.26,0,0,1,0,9.69V9.06a.26.26,0,0,1,.1-.21.26.26,0,0,1,.21-.1H9.69A.35.35,0,0,0,10,8.44V7.81a.35.35,0,0,0-.31-.31H1.56a.26.26,0,0,1-.21-.1.26.26,0,0,1-.1-.21V6.56a.26.26,0,0,1,.1-.21.26.26,0,0,1,.21-.1h9.38a.35.35,0,0,0,.31-.31V5.31A.35.35,0,0,0,10.94,5H.31A.26.26,0,0,1,.1,4.9.26.26,0,0,1,0,4.69V4.06a.26.26,0,0,1,.1-.21.26.26,0,0,1,.21-.1H2.5V1.88A1.77,1.77,0,0,1,3.05.55,1.77,1.77,0,0,1,4.37,0h10A1.77,1.77,0,0,1,15.7.55a1.77,1.77,0,0,1,.55,1.33V3.75H18a1.8,1.8,0,0,1,1.33.55l3.9,3.9a1.8,1.8,0,0,1,.55,1.33v4.22ZM6.25,18.12a1.87,1.87,0,1,0-1.33-3.2,1.87,1.87,0,0,0,1.33,3.2Zm12.5,0a1.86,1.86,0,1,0-1.33-.54A1.83,1.83,0,0,0,18.75,18.12ZM21.87,10V9.53L18,5.62H16.25V10Z"/></g></g></svg>