<svg xmlns="http://www.w3.org/2000/svg" viewBox="0 0 11.38 13"><title>z-user</title><g id="Camada_2" data-name="Camada 2"><g id="Camada_1-2" data-name="Camada 1"><path d="M5.69,6.5a3.22,3.22,0,0,1-1.64-.43A3.18,3.18,0,0,1,2.87,4.89a3.22,3.22,0,0,1-.43-1.64,3.22,3.22,0,0,1,.43-1.64A3.18,3.18,0,0,1,4.05.43,3.22,3.22,0,0,1,5.69,0,3.22,3.22,0,0,1,7.33.43,3.26,3.26,0,0,1,8.51,1.61a3.34,3.34,0,0,1,0,3.28A3.26,3.26,0,0,1,7.33,6.07,3.22,3.22,0,0,1,5.69,6.5ZM8,7.31a3.26,3.26,0,0,1,1.7.46A3.38,3.38,0,0,1,10.92,9a3.42,3.42,0,0,1,.46,1.7v1.07a1.15,1.15,0,0,1-.36.86,1.18,1.18,0,0,1-.86.36H1.22a1.15,1.15,0,0,1-.86-.36A1.15,1.15,0,0,1,0,11.78V10.71A3.32,3.32,0,0,1,.46,9,3.35,3.35,0,0,1,1.7,7.77a3.29,3.29,0,0,1,1.7-.46h.43a4.46,4.46,0,0,0,1.86.41,4.41,4.41,0,0,0,1.85-.41Z"/></g></g></svg>