<svg class="svg-sprites" id="skin-sprite" xmlns="http://www.w3.org/2000/svg" xmlns:xlink="http://www.w3.org/1999/xlink">
    <symbol viewBox="0 0 14.62 13" id="z-cart" xmlns="http://www.w3.org/2000/svg"><g data-name="Camada 2"><path d="M13.41 7.64a.67.67 0 01-.22.36.61.61 0 01-.37.12H5.38l.16.82h6.83a.53.53 0 01.45.23.61.61 0 01.13.5l-.15.64a1.36 1.36 0 01.59.52 1.34 1.34 0 01.22.75A1.43 1.43 0 0112.19 13a1.38 1.38 0 01-1-.42 1.41 1.41 0 01-.41-1 1.32 1.32 0 01.43-1H5.87a1.36 1.36 0 01.43 1A1.43 1.43 0 014.88 13a1.38 1.38 0 01-1-.42 1.36 1.36 0 01-.42-1 1.45 1.45 0 01.19-.71 1.58 1.58 0 01.52-.54L2.39 1.62H.61a.57.57 0 01-.43-.17A.6.6 0 010 1V.61A.58.58 0 01.18.18.58.58 0 01.61 0h2.61a.57.57 0 01.37.14.69.69 0 01.22.34L4 1.62h10a.59.59 0 01.48.23.56.56 0 01.1.51z" data-name="Camada 1"/></g></symbol>
    <symbol viewBox="0 0 8.75 7.66" id="z-menu" xmlns="http://www.w3.org/2000/svg"><g data-name="Camada 2"><path d="M.31 1.41a.29.29 0 01-.22-.09.32.32 0 01-.09-.23V.31A.29.29 0 01.09.09.29.29 0 01.31 0h8.13a.29.29 0 01.22.09.29.29 0 01.09.22v.78a.32.32 0 01-.09.23.29.29 0 01-.22.09zm0 3.12a.29.29 0 01-.22-.09.29.29 0 01-.09-.22v-.78a.32.32 0 01.09-.23.29.29 0 01.22-.09h8.13a.29.29 0 01.22.09.32.32 0 01.09.23v.78a.31.31 0 01-.31.31zm0 3.13a.29.29 0 01-.22-.09.32.32 0 01-.09-.23v-.78a.29.29 0 01.09-.22.29.29 0 01.22-.09h8.13a.31.31 0 01.31.31v.78a.32.32 0 01-.09.23.29.29 0 01-.22.09z" data-name="Camada 1"/></g></symbol>
    <symbol viewBox="0 0 17.44 17.44" id="z-next" xmlns="http://www.w3.org/2000/svg"><g data-name="Camada 2"><path d="M17.44 8.72a8.52 8.52 0 01-1.18 4.36 9 9 0 01-3.18 3.18 8.64 8.64 0 01-8.72 0 8.81 8.81 0 01-3.18-3.18A8.42 8.42 0 010 8.72a8.42 8.42 0 011.18-4.36 8.66 8.66 0 013.18-3.18A8.42 8.42 0 018.72 0a8.42 8.42 0 014.36 1.18 8.81 8.81 0 013.18 3.18 8.52 8.52 0 011.18 4.36zm-15.75 0a6.73 6.73 0 001 3.51A7 7 0 005.2 14.8a7 7 0 007 0 7 7 0 002.57-2.57 7 7 0 000-7 7 7 0 00-2.57-2.56 6.73 6.73 0 00-3.51-1 6.76 6.76 0 00-3.52 1A7 7 0 002.64 5.2a6.76 6.76 0 00-.95 3.52zm2.53.7a.41.41 0 00.42.42h4.08v2.36a.39.39 0 00.26.39.42.42 0 00.48-.11L12.94 9a.56.56 0 000-.64L9.42 4.92A.37.37 0 009 4.85a.39.39 0 00-.26.39v2.35h-4.1a.38.38 0 00-.3.13.41.41 0 00-.12.3z" data-name="Camada 1"/></g></symbol>
    <symbol viewBox="0 0 13.99 13.99" id="z-phone" xmlns="http://www.w3.org/2000/svg"><g data-name="Camada 2"><path d="M13.47.67a.53.53 0 01.38.22.66.66 0 01.15.41 12.46 12.46 0 01-1.72 6.4 12.67 12.67 0 01-4.58 4.57A12.46 12.46 0 011.3 14a.66.66 0 01-.41-.14.53.53 0 01-.22-.38L0 10.63a.62.62 0 01.05-.44.6.6 0 01.33-.3l3.08-1.31a.64.64 0 01.41 0 .51.51 0 01.36.23l1.34 1.64a9.65 9.65 0 002.86-2 10 10 0 002-2.84L8.77 4.2a.65.65 0 01-.22-.34.61.61 0 010-.42L9.89.37a.62.62 0 01.3-.3.62.62 0 01.44 0z" data-name="Camada 1"/></g></symbol>
    <symbol viewBox="0 0 17.44 17.44" id="z-prev" xmlns="http://www.w3.org/2000/svg"><g data-name="Camada 2"><path d="M0 8.72a8.42 8.42 0 011.18-4.36 8.66 8.66 0 013.18-3.18A8.42 8.42 0 018.72 0a8.42 8.42 0 014.36 1.18 8.81 8.81 0 013.18 3.18 8.64 8.64 0 010 8.72 9 9 0 01-3.18 3.18 8.64 8.64 0 01-8.72 0 8.81 8.81 0 01-3.18-3.18A8.42 8.42 0 010 8.72zm15.75 0a6.86 6.86 0 00-.95-3.52 7 7 0 00-2.57-2.56 6.73 6.73 0 00-3.51-1 6.76 6.76 0 00-3.52 1A7 7 0 002.64 5.2a6.76 6.76 0 00-1 3.52 6.73 6.73 0 001 3.51A7 7 0 005.2 14.8a7 7 0 007 0 7 7 0 002.57-2.57 6.82 6.82 0 00.98-3.51zM13.22 8a.43.43 0 00-.42-.43H8.72V5.24a.39.39 0 00-.26-.39.37.37 0 00-.46.07L4.54 8.4a.44.44 0 00-.15.32.32.32 0 00.15.28L8 12.48a.35.35 0 00.44.11.39.39 0 00.26-.39V9.84h4.1a.44.44 0 00.3-.12.41.41 0 00.12-.3z" data-name="Camada 1"/></g></symbol>
    <symbol viewBox="0 0 10 10" id="z-search" xmlns="http://www.w3.org/2000/svg"><g data-name="Camada 2"><path d="M9.86 8.65A.45.45 0 0110 9a.48.48 0 01-.14.34l-.54.54A.48.48 0 019 10a.45.45 0 01-.33-.14L6.7 7.91a.45.45 0 01-.14-.33v-.31a3.94 3.94 0 01-2.5.85 4 4 0 01-2-.54A4.09 4.09 0 01.55 6.1a3.9 3.9 0 01-.55-2A3.9 3.9 0 01.55 2 4 4 0 012 .55 3.9 3.9 0 014 0a3.88 3.88 0 012 .55A4.09 4.09 0 017.58 2a4 4 0 01.54 2 3.94 3.94 0 01-.85 2.5h.31a.45.45 0 01.33.14zm-5.8-2.09a2.47 2.47 0 001.26-.33 2.34 2.34 0 00.91-.91 2.47 2.47 0 00.33-1.26 2.52 2.52 0 00-.33-1.26 2.48 2.48 0 00-2.17-1.24 2.52 2.52 0 00-1.26.33 2.64 2.64 0 00-.91.91 2.52 2.52 0 00-.33 1.26A2.48 2.48 0 002.8 6.23a2.52 2.52 0 001.26.33z" data-name="Camada 1"/></g></symbol>
    <symbol viewBox="0 0 25 20" id="z-truck" xmlns="http://www.w3.org/2000/svg"><g data-name="Camada 2"><path d="M24.37 13.75a.62.62 0 01.63.63v1.24a.62.62 0 01-.63.63H22.5A3.72 3.72 0 0118.75 20 3.72 3.72 0 0115 16.25h-5A3.72 3.72 0 016.25 20a3.72 3.72 0 01-3.75-3.75v-5h5.94a.35.35 0 00.31-.31v-.63a.35.35 0 00-.31-.31H.31a.26.26 0 01-.21-.1.26.26 0 01-.1-.21v-.63a.26.26 0 01.1-.21.26.26 0 01.21-.1h9.38a.35.35 0 00.31-.31v-.63a.35.35 0 00-.31-.31H1.56a.26.26 0 01-.21-.1.26.26 0 01-.1-.21v-.63a.26.26 0 01.1-.21.26.26 0 01.21-.1h9.38a.35.35 0 00.31-.31v-.63a.35.35 0 00-.31-.31H.31a.26.26 0 01-.21-.1.26.26 0 01-.1-.21v-.63a.26.26 0 01.1-.21.26.26 0 01.21-.1H2.5V1.88A1.77 1.77 0 013.05.55 1.77 1.77 0 014.37 0h10a1.77 1.77 0 011.33.55 1.77 1.77 0 01.55 1.33v1.87H18a1.8 1.8 0 011.33.55l3.9 3.9a1.8 1.8 0 01.55 1.33v4.22zM6.25 18.12a1.87 1.87 0 10-1.33-3.2 1.87 1.87 0 001.33 3.2zm12.5 0a1.86 1.86 0 10-1.33-.54 1.83 1.83 0 001.33.54zM21.87 10v-.47L18 5.62h-1.75V10z" data-name="Camada 1"/></g></symbol>
    <symbol viewBox="0 0 11.38 13" id="z-user" xmlns="http://www.w3.org/2000/svg"><g data-name="Camada 2"><path d="M5.69 6.5a3.22 3.22 0 01-1.64-.43 3.18 3.18 0 01-1.18-1.18 3.22 3.22 0 01-.43-1.64 3.22 3.22 0 01.43-1.64A3.18 3.18 0 014.05.43 3.22 3.22 0 015.69 0a3.22 3.22 0 011.64.43 3.26 3.26 0 011.18 1.18 3.34 3.34 0 010 3.28 3.26 3.26 0 01-1.18 1.18 3.22 3.22 0 01-1.64.43zM8 7.31a3.26 3.26 0 011.7.46A3.38 3.38 0 0110.92 9a3.42 3.42 0 01.46 1.7v1.07a1.15 1.15 0 01-.36.86 1.18 1.18 0 01-.86.36H1.22a1.15 1.15 0 01-.86-.36 1.15 1.15 0 01-.36-.85v-1.07A3.32 3.32 0 01.46 9 3.35 3.35 0 011.7 7.77a3.29 3.29 0 011.7-.46h.43a4.46 4.46 0 001.86.41 4.41 4.41 0 001.85-.41z" data-name="Camada 1"/></g></symbol>
</svg>